HIERARCHY
ROOT Hips
{
  OFFSET 265.287 66.7526 -254.649
  CHANNELS 6 Xposition Yposition Zposition Zrotation Xrotation Yrotation
  JOINT LeftUpLeg
  {
    OFFSET 8.64259 1.95398 -2.38835
    CHANNELS 3 Zrotation Xrotation Yrotation
    JOINT LeftLeg
    {
      OFFSET 43.7702 0 0
      CHANNELS 3 Zrotation Xrotation Yrotation
      JOINT LeftFoot
      {
        OFFSET 40.6238 0 0
        CHANNELS 3 Zrotation Xrotation Yrotation
        JOINT LeftToeBase
        {
          OFFSET 12.7242 0 0
          CHANNELS 3 Zrotation Xrotation Yrotation
          End Site
          {
            OFFSET 0 0 0
          }
        }
      }
    }
  }
  JOINT RightUpLeg
  {
    OFFSET -8.2249 1.95398 -2.59336
    CHANNELS 3 Zrotation Xrotation Yrotation
    JOINT RightLeg
    {
      OFFSET 43.5653 0 0
      CHANNELS 3 Zrotation Xrotation Yrotation
      JOINT RightFoot
      {
        OFFSET 40.6238 0 0
        CHANNELS 3 Zrotation Xrotation Yrotation
        JOINT RightToeBase
        {
          OFFSET 12.7242 0 0
          CHANNELS 3 Zrotation Xrotation Yrotation
          End Site
          {
            OFFSET 0 0 0
          }
        }
      }
    }
  }
  JOINT Spine
  {
    OFFSET 0.165834 0.87714 6.61349
    CHANNELS 3 Zrotation Xrotation Yrotation
    JOINT Spine1
    {
      OFFSET 7.38963 1.71661e-005 0
      CHANNELS 3 Zrotation Xrotation Yrotation
      JOINT Spine2
      {
        OFFSET 11.9445 1.14441e-005 0
        CHANNELS 3 Zrotation Xrotation Yrotation
        JOINT Spine3
        {
          OFFSET 14.7254 4.19617e-005 0
          CHANNELS 3 Zrotation Xrotation Yrotation
          JOINT Spine4
          {
            OFFSET 10.9679 0 0
            CHANNELS 3 Zrotation Xrotation Yrotation
            JOINT RightShoulder
            {
              OFFSET 2.46616 -1.6653 3.69651
              CHANNELS 3 Zrotation Xrotation Yrotation
              JOINT RightArm
              {
                OFFSET 13.0012 0 0
                CHANNELS 3 Zrotation Xrotation Yrotation
                JOINT RightForeArm
                {
                  OFFSET 28.7848 1.52588e-005 0
                  CHANNELS 3 Zrotation Xrotation Yrotation
                  JOINT RightHand
                  {
                    OFFSET 26.5688 1.52588e-005 0
                    CHANNELS 3 Zrotation Xrotation Yrotation
                    End Site
                    {
                      OFFSET 0 0 0
                    }
                  }
                }
              }
            }
            JOINT LeftShoulder
            {
              OFFSET 2.38034 -1.29275 -3.7523
              CHANNELS 3 Zrotation Xrotation Yrotation
              JOINT LeftArm
              {
                OFFSET 16.3182 6.10351e-005 0
                CHANNELS 3 Zrotation Xrotation Yrotation
                JOINT LeftForeArm
                {
                  OFFSET 27.0901 0 0
                  CHANNELS 3 Zrotation Xrotation Yrotation
                  JOINT LeftHand
                  {
                    OFFSET 24.5451 1.52588e-005 0
                    CHANNELS 3 Zrotation Xrotation Yrotation
                    End Site
                    {
                      OFFSET 0 0 0
                    }
                  }
                }
              }
            }
            JOINT Neck
            {
              OFFSET 5.0226 -0.0266342 0
              CHANNELS 3 Zrotation Xrotation Yrotation
              JOINT Head
              {
                OFFSET 6.69364 2.86102e-005 0
                CHANNELS 3 Zrotation Xrotation Yrotation
                End Site
                {
                  OFFSET 0 0 0
                }
              }
            }
          }
        }
      }
    }
  }
}
MOTION
Frames:	9
Frame Time:	0.0416667
-142.47 87.7017 145.234 -78.4748 -38.0621 91.347 4.75591 8.04804 -81.0468 -46.5396 6.40364 -12.3506 42.7723 -5.41872 -0.476417 59.726 -8.85722 3.88141 -10.3755 -12.6741 -84.5914 -25.8244 -1.63425 2.81258 58.4554 5.50967 13.0176 26.5526 0.375006 -0.368272 1.76543 -12.1145 -88.7389 51.1427 3.82545 0.257541 39.4774 3.83307 0.0886677 16.9016 3.57097 1.39679 36.9143 3.57098 1.39679 102.118 -52.4383 -82.2388 27.5367 0.835808 -0.10661 -1.83726 -16.1606 -11.7522 -9.22392 -0.566495 2.06514 -84.7322 -48.5927 86.2453 -25.2172 14.9801 -25.1166 2.4105 28.0764 -6.12259 1.79831 -0.132018 -5.50951 9.7735 1.93751 -4.40218 -11.0626 2.06536 12.3156 
-136.071 89.3167 139.954 -79.3169 -34.5568 92.4981 3.93569 -3.18366 -80.3931 -52.9524 4.54209 -15.4313 51.3907 -1.87755 9.09421 52.4038 -7.08936 1.81143 -12.8805 -5.41525 -84.3874 -22.1798 -1.60594 0.944641 61.4079 4.07968 14.1051 26.89 0.332354 -0.426393 1.47377 -12.0908 -87.8125 51.0426 4.08577 2.2767 39.3764 4.182 2.09448 16.8219 3.21287 3.39959 36.8346 3.21285 3.39958 102.038 -51.994 -82.3597 26.8348 -1.22633 -5.48828 -1.49977 -15.9077 -13.9527 -12.7022 -0.794417 2.12321 -85.2276 -49.9299 85.6629 -26.296 14.7453 -21.6596 -1.76229 31.0596 0.449567 2.1924 -0.110998 -4.8893 8.63342 1.17492 -3.19167 -9.83045 1.25921 10.3532 
-130.458 90.3031 134.881 -80.9002 -30.7274 92.7002 8.76245 -9.03819 -79.555 -40.5095 -3.38249 -20.3439 57.046 0.354718 14.1259 50.3372 -6.40104 2.64991 -16.0057 0.903365 -84.924 -16.6334 -0.4573 0.437124 62.8325 3.08183 15.6631 26.9431 0.24679 0.146849 1.17129 -12.1214 -87.0624 51.0562 4.18461 3.97952 39.3864 4.35557 3.79157 16.8725 2.7969 5.05148 36.8852 2.79691 5.05147 101.084 -52.0444 -83.8128 25.0665 -3.64747 -9.8787 -1.87309 -13.4234 -18.85 -12.8073 -0.78378 1.8981 -84.96 -50.4983 86.1382 -27.6859 13.219 -14.5948 -0.899788 28.2465 -0.35512 0.46497 -0.0885596 -4.12724 8.25455 1.11424 -2.85574 -10.0541 1.15286 9.35115 
-124.848 90.0036 129.737 -81.5378 -29.4497 91.8088 19.9768 -5.72943 -76.4399 -14.5934 -20.2786 -18.9637 55.4132 -1.10077 14.8984 46.7234 -5.41554 1.8806 -16.1796 5.94524 -84.4309 -15.7541 0.544011 -0.159783 65.0659 1.86705 17.1681 29.474 -0.198112 0.799525 1.29164 -12.0675 -86.7773 50.9332 4.60188 4.3649 39.2637 4.78937 4.15826 16.7535 3.07956 5.54388 36.7661 3.07956 5.54388 100.712 -50.6419 -84.4141 24.0508 -4.75619 -15.6959 -2.52242 -12.9011 -21.3065 -11.1622 -0.526799 0.332141 -85.4105 -52.1536 85.6815 -28.0991 12.3913 -9.30312 -1.07245 26.3674 -0.141956 1.81659 -0.0805595 -4.01099 7.32577 1.09282 -1.41346 -8.07809 1.00365 8.81866 
-118.607 89.0898 123.751 -81.36 -27.9215 90.8017 29.2617 -7.30399 -77.889 -4.88602 -30.0819 -4.21772 59.0731 -6.8256 10.6516 42.883 -4.26538 4.1887 -15.9435 9.37471 -83.8781 -19.1265 -2.42405 -0.0854109 63.9414 1.62488 16.726 38.7023 -1.52246 3.41835 1.37093 -11.9818 -86.5106 50.7468 4.93728 4.76628 39.0773 5.14206 4.54453 16.5736 3.27948 6.02684 36.5862 3.27949 6.02683 99.7798 -50.2715 -85.8726 23.4075 -4.77423 -17.2737 -3.16332 -11.6115 -24.4428 -11.2136 -0.440505 -0.637734 -85.1434 -52.6753 86.1391 -28.5441 11.1103 -7.3527 -0.994047 27.6802 -0.00170707 0.512608 -0.110923 -5.17991 6.93316 1.27378 -2.003 -7.55714 1.31523 9.32717 
-111.661 88.3171 116.731 -81.7982 -27.3096 91.2129 23.3538 -9.31697 -79.4657 -10.3873 -21.9693 -8.08001 55.201 -7.19723 11.5901 40.8715 -3.72967 1.97963 -17.4227 11.9686 -85.3355 -22.9508 -3.94761 0.529763 56.4439 3.57658 19.9816 49.2308 -2.53539 5.22576 0.942844 -12.1378 -86.4227 51.0371 4.31902 5.40306 39.3628 4.5523 5.20819 16.8945 2.49945 6.44756 36.9071 2.49944 6.44755 100.692 -51.2336 -84.4294 23.8032 -5.46446 -15.0426 -4.35348 -14.0145 -25.9953 -10.6996 -0.435898 -0.466071 -84.2452 -51.0831 87.2804 -29.2865 10.5272 -6.81528 -0.910415 29.32 -0.00183578 -0.613509 -0.0842082 -4.01129 7.99377 0.898479 -4.35668 -9.09013 1.32805 9.39647 
-105.024 87.562 109.675 -81.0869 -28.9797 94.2018 12.518 -13.6454 -85.7508 -22.8086 -4.82353 -8.88593 56.539 -5.95588 18.2726 37.056 -2.42183 -3.45481 -16.9254 8.31378 -92.0489 -36.6095 -4.71575 3.48415 39.5081 8.66899 24.1528 52.2145 -2.16192 13.2479 0.180979 -12.2381 -86.864 51.2551 2.75323 5.47112 39.576 2.991 5.34511 17.1288 0.985092 6.04348 37.1414 0.985104 6.04348 101.075 -51.9893 -83.8254 26.3919 -4.22911 -9.55668 -5.14008 -16.2501 -24.6893 -10.1001 -0.439506 -0.0655203 -84.395 -49.9087 86.9202 -28.4293 10.6557 -8.27502 -0.939965 29.3019 -0.00211476 -0.0961963 -0.0876139 -4.16993 9.00513 0.559203 -5.72285 -9.59158 1.31107 8.9646 
-99.1113 87.75 103.416 -79.3463 -29.5737 96.7546 4.93397 -8.5319 -91.0219 -25.0866 1.78342 -7.70531 62.8066 -1.34809 21.5296 35.0261 -1.65081 -5.20416 -16.6879 -4.47234 -91.4264 -56.1269 -7.50068 4.48698 38.3005 9.36235 19.6117 49.2727 -1.94981 15.1289 -0.205384 -12.0698 -87.4275 50.9526 1.68697 4.89933 39.2737 1.90068 4.82061 16.8126 0.138741 5.17913 36.8253 0.138744 5.17912 101.275 -52.5474 -83.5136 27.8226 -2.29568 -7.42005 -3.6808 -17.3602 -18.6215 -9.37224 -0.474156 0.734153 -84.7256 -50.1126 86.4453 -25.6105 11.7562 -14.0146 -1.21583 29.9682 -0.00222113 1.67502 -0.0937501 -4.44002 9.28736 1.36718 -5.53392 -8.49638 2.12739 9.7661 
-93.2956 88.9985 97.691 -78.4752 -33.2399 94.9922 6.01195 -0.441953 -91.6646 -20.3981 2.47429 -5.75999 65.0034 0.547111 20.9334 35.223 -1.72673 -5.05195 -14.6847 -13.9496 -91.3178 -56.8207 -7.24706 4.22056 46.3249 6.87141 17.7628 44.7376 -1.97337 11.9539 0.265908 -12.1581 -88.0846 51.1551 1.93072 3.16398 39.482 2.06803 3.07604 16.9743 0.891255 3.59742 36.987 0.891256 3.59742 101.481 -52.3515 -83.2045 28.8722 0.00268824 -3.61739 -2.89329 -18.1221 -13.7139 -8.26103 -0.420217 0.785055 -84.8178 -49.2951 86.2032 -23.8696 12.8499 -20.952 -0.974361 28.5692 -0.00166277 3.28722 -0.0330028 -3.2059 7.13373 1.79197 -5.13391 -7.93207 2.38872 10.3283 
